<mxfile host="app.diagrams.net" modified="2022-12-11T22:48:17.784Z" agent="5.0 (Windows NT 10.0; Win64; x64) AppleWebKit/537.36 (KHTML, like Gecko) Chrome/108.0.0.0 Safari/537.36" etag="ScE8qD3DxbfSn9Dh5-xb" version="20.6.2" type="github">
  <diagram id="C5RBs43oDa-KdzZeNtuy" name="Page-1">
    <mxGraphModel dx="857" dy="531" grid="1" gridSize="10" guides="1" tooltips="1" connect="1" arrows="1" fold="1" page="1" pageScale="1" pageWidth="827" pageHeight="1169" math="0" shadow="0">
      <root>
        <mxCell id="WIyWlLk6GJQsqaUBKTNV-0" />
        <mxCell id="WIyWlLk6GJQsqaUBKTNV-1" parent="WIyWlLk6GJQsqaUBKTNV-0" />
        <mxCell id="u57yWx9inwsvYJopNUjR-0" value="package" style="shape=folder;fontStyle=1;spacingTop=10;tabWidth=40;tabHeight=14;tabPosition=left;html=1;" vertex="1" parent="WIyWlLk6GJQsqaUBKTNV-1">
          <mxGeometry x="290" y="630" width="70" height="50" as="geometry" />
        </mxCell>
        <mxCell id="u57yWx9inwsvYJopNUjR-3" value=":HostMachine" style="verticalAlign=top;align=center;spacingTop=8;spacingLeft=2;spacingRight=12;shape=cube;size=10;direction=south;fontStyle=4;html=1;" vertex="1" parent="WIyWlLk6GJQsqaUBKTNV-1">
          <mxGeometry x="100" y="305" width="410" height="280" as="geometry" />
        </mxCell>
        <mxCell id="u57yWx9inwsvYJopNUjR-1" value="&lt;u&gt;:Scheduler&lt;/u&gt;" style="html=1;dropTarget=0;" vertex="1" parent="WIyWlLk6GJQsqaUBKTNV-1">
          <mxGeometry x="120" y="370" width="120" height="70" as="geometry" />
        </mxCell>
        <mxCell id="u57yWx9inwsvYJopNUjR-2" value="" style="shape=module;jettyWidth=8;jettyHeight=4;" vertex="1" parent="u57yWx9inwsvYJopNUjR-1">
          <mxGeometry x="1" width="20" height="20" relative="1" as="geometry">
            <mxPoint x="-27" y="7" as="offset" />
          </mxGeometry>
        </mxCell>
        <mxCell id="u57yWx9inwsvYJopNUjR-4" value="MeetingDB:&#xa;Database" style="swimlane;fontStyle=1;align=center;verticalAlign=top;childLayout=stackLayout;horizontal=1;startSize=38;horizontalStack=0;resizeParent=1;resizeParentMax=0;resizeLast=0;collapsible=1;marginBottom=0;" vertex="1" parent="WIyWlLk6GJQsqaUBKTNV-1">
          <mxGeometry x="320" y="362" width="160" height="82" as="geometry" />
        </mxCell>
        <mxCell id="u57yWx9inwsvYJopNUjR-6" value="" style="line;strokeWidth=1;fillColor=none;align=left;verticalAlign=middle;spacingTop=-1;spacingLeft=3;spacingRight=3;rotatable=0;labelPosition=right;points=[];portConstraint=eastwest;strokeColor=inherit;" vertex="1" parent="u57yWx9inwsvYJopNUjR-4">
          <mxGeometry y="38" width="160" height="44" as="geometry" />
        </mxCell>
        <mxCell id="u57yWx9inwsvYJopNUjR-8" value=":PC" style="verticalAlign=top;align=center;spacingTop=8;spacingLeft=2;spacingRight=12;shape=cube;size=10;direction=south;fontStyle=4;html=1;" vertex="1" parent="WIyWlLk6GJQsqaUBKTNV-1">
          <mxGeometry x="100" y="720" width="410" height="220" as="geometry" />
        </mxCell>
        <mxCell id="u57yWx9inwsvYJopNUjR-9" value="&lt;u&gt;:Planner&lt;/u&gt;" style="html=1;dropTarget=0;" vertex="1" parent="WIyWlLk6GJQsqaUBKTNV-1">
          <mxGeometry x="120" y="800" width="140" height="70" as="geometry" />
        </mxCell>
        <mxCell id="u57yWx9inwsvYJopNUjR-10" value="" style="shape=module;jettyWidth=8;jettyHeight=4;" vertex="1" parent="u57yWx9inwsvYJopNUjR-9">
          <mxGeometry x="1" width="20" height="20" relative="1" as="geometry">
            <mxPoint x="-27" y="7" as="offset" />
          </mxGeometry>
        </mxCell>
        <mxCell id="u57yWx9inwsvYJopNUjR-17" value="" style="rounded=0;orthogonalLoop=1;jettySize=auto;html=1;endArrow=none;endFill=0;sketch=0;sourcePerimeterSpacing=0;targetPerimeterSpacing=0;" edge="1" target="u57yWx9inwsvYJopNUjR-19" parent="WIyWlLk6GJQsqaUBKTNV-1" source="u57yWx9inwsvYJopNUjR-1">
          <mxGeometry relative="1" as="geometry">
            <mxPoint x="10" y="520" as="sourcePoint" />
          </mxGeometry>
        </mxCell>
        <mxCell id="u57yWx9inwsvYJopNUjR-18" value="" style="rounded=0;orthogonalLoop=1;jettySize=auto;html=1;endArrow=halfCircle;endFill=0;endSize=6;strokeWidth=1;sketch=0;" edge="1" target="u57yWx9inwsvYJopNUjR-19" parent="WIyWlLk6GJQsqaUBKTNV-1" source="u57yWx9inwsvYJopNUjR-9">
          <mxGeometry relative="1" as="geometry">
            <mxPoint x="40" y="810" as="sourcePoint" />
            <mxPoint x="60" y="655" as="targetPoint" />
          </mxGeometry>
        </mxCell>
        <mxCell id="u57yWx9inwsvYJopNUjR-19" value="" style="ellipse;whiteSpace=wrap;html=1;align=center;aspect=fixed;resizable=0;points=[];outlineConnect=0;sketch=0;" vertex="1" parent="WIyWlLk6GJQsqaUBKTNV-1">
          <mxGeometry x="175" y="620" width="10" height="10" as="geometry" />
        </mxCell>
        <mxCell id="u57yWx9inwsvYJopNUjR-20" value="" style="endArrow=open;dashed=1;endFill=0;endSize=12;html=1;rounded=0;" edge="1" parent="WIyWlLk6GJQsqaUBKTNV-1">
          <mxGeometry width="160" relative="1" as="geometry">
            <mxPoint x="240" y="410" as="sourcePoint" />
            <mxPoint x="320" y="410" as="targetPoint" />
          </mxGeometry>
        </mxCell>
      </root>
    </mxGraphModel>
  </diagram>
</mxfile>
